<svg width="103" height="90" viewBox="0 0 103 90" fill="none" xmlns="http://www.w3.org/2000/svg">
<g clip-path="url(#clip0_436_1046)">
<path d="M19.0669 76.2779C18.4034 76.2588 17.7428 76.3734 17.125 76.6145C16.5072 76.8556 15.945 77.2183 15.4723 77.6809C14.9996 78.1434 14.6262 78.696 14.3745 79.3056C14.1229 79.9153 13.9982 80.5692 14.0081 81.2279C13.9982 81.8867 14.1229 82.5406 14.3745 83.1502C14.6262 83.7599 14.9996 84.3127 15.4723 84.7752C15.945 85.2377 16.5072 85.6003 17.125 85.8414C17.7428 86.0825 18.4034 86.1971 19.0669 86.1779C19.7311 86.1981 20.3925 86.0845 21.0113 85.8439C21.63 85.6033 22.1931 85.2407 22.6667 84.7781C23.1402 84.3154 23.5144 83.7623 23.7665 83.1521C24.0186 82.542 24.1435 81.8873 24.1336 81.2279C24.1435 80.5685 24.0186 79.9141 23.7665 79.3039C23.5144 78.6937 23.1402 78.1405 22.6667 77.6778C22.1931 77.2152 21.63 76.8528 21.0113 76.6122C20.3925 76.3716 19.7311 76.2577 19.0669 76.2779ZM19.0669 84.2277C18.6749 84.2258 18.2873 84.1461 17.9267 83.9935C17.5662 83.8409 17.24 83.6184 16.9672 83.339C16.6945 83.0595 16.4808 82.7289 16.3385 82.3664C16.1963 82.0039 16.1285 81.6168 16.139 81.2279C16.1285 80.8387 16.1963 80.4512 16.3384 80.0883C16.4806 79.7254 16.6942 79.3943 16.9668 79.1142C17.2394 78.8342 17.5656 78.6109 17.9262 78.4574C18.2868 78.3039 18.6746 78.2235 19.0669 78.2205C19.4599 78.2224 19.8486 78.3021 20.2101 78.4551C20.5716 78.6081 20.8987 78.8312 21.1722 79.1114C21.4456 79.3915 21.66 79.7231 21.8026 80.0866C21.9452 80.45 22.0133 80.838 22.0027 81.2279C22.009 81.6149 21.9378 81.9992 21.7931 82.3586C21.6485 82.718 21.4334 83.0452 21.1602 83.3214C20.8871 83.5975 20.5614 83.8171 20.202 83.9673C19.8427 84.1175 19.4568 84.1954 19.0669 84.1964V84.2277Z" fill="#003DA5"/>
<path d="M29.4055 79.1761C30.1391 78.6951 31.0049 78.4515 31.8837 78.4789C32.0611 78.4744 32.2385 78.4902 32.4124 78.5259V76.3093C32.2892 76.2942 32.1646 76.2942 32.0415 76.3093C30.763 76.3093 28.6163 77.2022 28.1744 78.2517V76.5522H26.0593V85.9509H28.1902V81.7997C28.1568 81.2966 28.2506 80.7932 28.4628 80.335C28.675 79.8769 28.999 79.4786 29.4055 79.1761Z" fill="#003DA5"/>
<path d="M88.3195 79.176C89.0527 78.6941 89.9187 78.4504 90.7976 78.4788C90.9751 78.4748 91.1524 78.4906 91.3264 78.5259V76.3093C91.2031 76.2952 91.0787 76.2952 90.9554 76.3093C89.669 76.3093 87.5303 77.2021 87.0805 78.2517V76.5521H84.9654V85.9508H87.1041V81.7997C87.0708 81.2965 87.1645 80.7931 87.3767 80.335C87.589 79.8768 87.913 79.4785 88.3195 79.176Z" fill="#003DA5"/>
<path d="M52.4109 85.9429V80.2803C52.4109 77.8288 51.0061 76.3093 48.7411 76.3093C48.1716 76.2876 47.606 76.4116 47.0988 76.6695C46.5915 76.9274 46.1597 77.3105 45.8447 77.7818L45.7342 77.9541V72.6674H43.6112V85.9821H45.75V81.0086C45.75 79.356 46.6576 78.283 48.0702 78.283C49.4829 78.283 50.2721 79.1916 50.2721 80.7189V85.9821L52.4109 85.9429Z" fill="#003DA5"/>
<path d="M66.0562 78.2204C66.3651 78.2146 66.6719 78.272 66.9575 78.389C67.243 78.5061 67.5012 78.6803 67.716 78.9007C67.9307 79.1212 68.0974 79.3832 68.2056 79.6704C68.3138 79.9576 68.3612 80.2638 68.3449 80.57V85.9507H70.4757V80.1392C70.5069 79.6331 70.431 79.126 70.2529 78.6508C70.0749 78.1755 69.7985 77.7425 69.4418 77.3796C69.085 77.0167 68.6556 76.732 68.1813 76.5436C67.707 76.3552 67.1981 76.2672 66.6875 76.2856C66.0274 76.271 65.3743 76.4238 64.7902 76.7295C64.206 77.0351 63.7101 77.4834 63.3492 78.0322L63.2861 78.1263L63.2387 78.0246C62.9493 77.4762 62.5082 77.0212 61.9671 76.7132C61.426 76.4052 60.8076 76.2567 60.1845 76.2856C59.5645 76.2909 58.9546 76.443 58.4056 76.7291C57.8565 77.0151 57.3842 77.4269 57.0277 77.9305V76.5207H54.889V85.9193H57.0277V80.9068C57.0097 80.5658 57.0601 80.2246 57.1761 79.9031C57.2921 79.5816 57.4714 79.2861 57.7034 79.034C57.9354 78.7818 58.2157 78.5781 58.5278 78.4343C58.84 78.2906 59.1778 78.2099 59.5216 78.1969C60.8001 78.1969 61.6209 79.1444 61.6209 80.6169V85.9193H63.7754V80.8127C63.7518 80.4935 63.7923 80.1728 63.8944 79.8692C63.9966 79.5656 64.1584 79.2852 64.3705 79.0441C64.5826 78.803 64.8409 78.606 65.1302 78.4646C65.4196 78.3232 65.7343 78.2402 66.0562 78.2204Z" fill="#003DA5"/>
<path d="M82.4715 85.9429V76.5443H80.3565V77.9776L80.2381 77.821C79.868 77.3296 79.3828 76.935 78.8245 76.6716C78.2662 76.4082 77.6516 76.2839 77.0339 76.3093C76.399 76.322 75.773 76.4615 75.1934 76.7192C74.6139 76.977 74.0924 77.3477 73.6602 77.8095C73.228 78.2714 72.8938 78.8149 72.6775 79.4075C72.4612 80.0002 72.3673 80.6299 72.4013 81.2593C72.3673 81.8887 72.4612 82.5184 72.6775 83.111C72.8938 83.7037 73.228 84.2472 73.6602 84.709C74.0924 85.1708 74.6139 85.5416 75.1934 85.7993C75.773 86.0571 76.399 86.1965 77.0339 86.2093C77.6555 86.2224 78.271 86.0869 78.8287 85.8142C79.3864 85.5416 79.8698 85.1399 80.2381 84.6429L80.3565 84.4862V86.0057L82.4715 85.9429ZM77.4996 84.2512C77.1052 84.2483 76.7153 84.1672 76.3528 84.013C75.9903 83.8587 75.6624 83.6342 75.3883 83.3527C75.1142 83.0712 74.8994 82.7383 74.7565 82.3735C74.6135 82.0087 74.5453 81.6192 74.5558 81.2279C74.5442 80.8363 74.6117 80.4465 74.7543 80.0812C74.8968 79.7159 75.1116 79.3825 75.3859 79.1008C75.6602 78.8191 75.9885 78.5946 76.3515 78.4408C76.7145 78.2869 77.1048 78.2067 77.4996 78.2048C77.8947 78.2067 78.2854 78.287 78.6488 78.4408C79.0122 78.5946 79.3411 78.8189 79.616 79.1004C79.8909 79.382 80.1064 79.7153 80.2498 80.0806C80.3932 80.446 80.4617 80.836 80.4512 81.2279C80.4617 81.6199 80.3932 82.0101 80.2498 82.3754C80.1064 82.7408 79.8909 83.074 79.616 83.3556C79.3411 83.6372 79.0122 83.8615 78.6488 84.0153C78.2854 84.1691 77.8947 84.2493 77.4996 84.2512Z" fill="#003DA5"/>
<path d="M102.58 89.9921V76.5129H100.434V77.9462L100.323 77.7896C99.9528 77.2987 99.4675 76.9045 98.9093 76.6412C98.3511 76.3778 97.7368 76.2531 97.1192 76.2779C96.4842 76.2906 95.8583 76.4301 95.2787 76.6878C94.6991 76.9456 94.1777 77.3163 93.7455 77.7781C93.3132 78.24 92.9791 78.7835 92.7628 79.3761C92.5465 79.9688 92.4526 80.5985 92.4866 81.2279C92.4526 81.8573 92.5465 82.487 92.7628 83.0796C92.9791 83.6722 93.3132 84.2158 93.7455 84.6776C94.1777 85.1394 94.6991 85.5102 95.2787 85.7679C95.8583 86.0257 96.4842 86.1651 97.1192 86.1779C97.7404 86.1891 98.3553 86.0526 98.9127 85.7801C99.47 85.5077 99.9537 85.107 100.323 84.6114L100.434 84.4548V89.9999L102.58 89.9921ZM97.5927 84.2512C97.1983 84.2482 96.8085 84.1672 96.4459 84.0129C96.0834 83.8587 95.7555 83.6341 95.4815 83.3527C95.2074 83.0712 94.9926 82.7383 94.8496 82.3734C94.7067 82.0086 94.6385 81.6192 94.649 81.2279C94.6374 80.8363 94.7049 80.4465 94.8474 80.0811C94.99 79.7158 95.2047 79.3825 95.479 79.1008C95.7533 78.8191 96.0816 78.5946 96.4446 78.4407C96.8076 78.2868 97.198 78.2067 97.5927 78.2047C97.9878 78.2067 98.3785 78.2869 98.742 78.4407C99.1054 78.5945 99.4342 78.8188 99.7091 79.1004C99.9841 79.382 100.2 79.7152 100.343 80.0806C100.486 80.4459 100.555 80.8359 100.544 81.2279C100.555 81.6198 100.486 82.01 100.343 82.3754C100.2 82.7407 99.9841 83.0739 99.7091 83.3555C99.4342 83.6371 99.1054 83.8614 98.742 84.0152C98.3785 84.169 97.9878 84.2492 97.5927 84.2512Z" fill="#003DA5"/>
<path d="M9.4308 85.9586H11.6248V72.636H9.50183V82.4967L2.2964 72.636H-0.000183105V85.9586H2.12277V76.0273L9.4308 85.9586Z" fill="#003DA5"/>
<path d="M36.8557 85.4964C37.7238 86.17 39.0812 86.2798 40.8885 85.8412V83.9065H40.7543C40.1624 84.0318 39.0654 84.2668 38.4341 83.7577C38.2645 83.6029 38.1329 83.4116 38.0494 83.1984C37.966 82.9852 37.9328 82.756 37.9527 82.5282V78.2673H40.8885V76.4815H37.9527V72.5654H35.8218V76.4815H34.1408V78.2751H35.8297V83.0294C35.7948 83.4915 35.8694 83.9553 36.0475 84.3837C36.2257 84.8122 36.5025 85.1932 36.8557 85.4964Z" fill="#003DA5"/>
<path d="M74.8873 55.4365C74.757 54.8793 74.6935 54.3089 74.6979 53.7369V37.3596C74.6979 35.5112 75.1241 19.2907 60.2713 19.2907C52.9633 19.2907 46.2235 23.2695 41.0463 28.9714L41.1252 19.1811L40.4307 18.8757L20.1877 25.2511V27.8436C22.3315 28.3706 24.2366 29.593 25.6006 31.317C26.9646 33.041 27.7093 35.1677 27.7167 37.3596V53.7369C27.708 56.1222 26.8271 58.4231 25.2377 60.2123C23.6482 62.0015 21.4583 63.1571 19.0749 63.4645V66.3232H54.0129L51.1244 63.4488H50.9034C48.2841 63.4447 45.7728 62.4117 43.9184 60.5758C42.064 58.7398 41.0173 56.2502 41.0069 53.6507V37.2814C41.0152 34.6799 42.0608 32.1872 43.9152 30.3483C45.7696 28.5094 48.282 27.4738 50.9034 27.4677H51.4086C54.0286 27.4759 56.539 28.5125 58.3917 30.3512C60.2444 32.1898 61.2889 34.6812 61.2973 37.2814V53.6507C61.2919 55.4976 60.7628 57.3056 59.7705 58.868C58.7782 60.4304 57.3627 61.6841 55.686 62.4855L59.5689 66.3389H83.1108V63.3469C81.0861 63.0294 79.2095 62.0991 77.7376 60.6832C76.2657 59.2674 75.2703 57.435 74.8873 55.4365Z" fill="#003DA5"/>
<path d="M93.694 11.2393C90.935 10.6049 88.4106 9.21544 86.4073 7.22874C84.4041 5.24204 83.0023 2.73761 82.3611 0H81.4456C80.8059 2.73701 79.4055 5.24104 77.4036 7.22778C75.4017 9.21453 72.8784 10.6044 70.1205 11.2393V12.1478C72.8788 12.7818 75.4025 14.1713 77.4046 16.1582C79.4066 18.145 80.8067 20.6497 81.4456 23.3871H82.3611C83.0001 20.6476 84.4011 18.1411 86.4046 16.1528C88.4081 14.1645 90.9336 12.7741 93.694 12.1399V11.2393Z" fill="#003DA5"/>
</g>
<defs>
<clipPath id="clip0_436_1046">
<rect width="102.581" height="90" fill="white" transform="translate(-0.000183105)"/>
</clipPath>
</defs>
</svg>
